<svg xmlns="http://www.w3.org/2000/svg" viewBox="0 0 512 512" style="height: 32px; width: 32px;"><defs><filter id="shadow-1" height="300%" width="300%" x="-100%" y="-100%"><feFlood flood-color="rgba(36, 33, 33, 1)" result="flood"></feFlood><feComposite in="flood" in2="SourceGraphic" operator="atop" result="composite"></feComposite><feGaussianBlur in="composite" stdDeviation="15" result="blur"></feGaussianBlur><feOffset dx="0" dy="0" result="offset"></feOffset><feComposite in="SourceGraphic" in2="offset" operator="over"></feComposite></filter></defs><g class="" transform="translate(0,0)" style=""><path d="M96 64L64 96l48 48-48 48h128V64l-48 48-48-48zm224 0v128h128l-48-48 48-48-32-32-48 48-48-48zM64 320l48 48-48 48 32 32 48-48 48 48V320H64zm256 0v128l48-48 48 48 32-32-48-48 48-48H320z" fill="#fff" fill-opacity="1" stroke="#d3cfcf" stroke-opacity="1" stroke-width="2" transform="translate(512, 0) scale(-1, 1) rotate(0, 256, 256) skewX(0) skewY(0)" filter="url(#shadow-1)"></path></g></svg>