<svg xmlns="http://www.w3.org/2000/svg" viewBox="0 0 512 512" style="height: 32px; width: 32px;"><defs><filter id="shadow-1" height="300%" width="300%" x="-100%" y="-100%"><feFlood flood-color="rgba(36, 33, 33, 1)" result="flood"></feFlood><feComposite in="flood" in2="SourceGraphic" operator="atop" result="composite"></feComposite><feGaussianBlur in="composite" stdDeviation="15" result="blur"></feGaussianBlur><feOffset dx="0" dy="0" result="offset"></feOffset><feComposite in="SourceGraphic" in2="offset" operator="over"></feComposite></filter></defs><g class="" transform="translate(0,0)" style=""><path d="M199 103v50h-78v30h270v-30h-78v-50H199zm18 18h78v32h-78v-32zm-79.002 80l30.106 286h175.794l30.104-286H137.998zm62.338 13.38l.64 8.98 16 224 .643 8.976-17.956 1.283-.64-8.98-16-224-.643-8.976 17.956-1.283zm111.328 0l17.955 1.284-.643 8.977-16 224-.64 8.98-17.956-1.284.643-8.977 16-224 .64-8.98zM247 215h18v242h-18V215z" fill="#fff" fill-opacity="1" transform="translate(512, 0) scale(-1, 1) rotate(0, 256, 256) skewX(0) skewY(0)" filter="url(#shadow-1)" stroke="#d3cfcf" stroke-opacity="1" stroke-width="2"></path></g></svg>